<svg xmlns="http://www.w3.org/2000/svg" xmlns:xlink="http://www.w3.org/1999/xlink" version="1.1" viewBox="-0.41 -0.33 32.41 32.81">
<g id="surface1">
<path style=" stroke:none;fill-rule:nonzero;fill:rgb(0%,0%,0%);fill-opacity:1;" d="M 20.265625 17.972656 C 19.617188 17.992188 19.015625 17.425781 18.921875 16.699219 C 18.828125 15.976562 19.273438 15.371094 19.917969 15.347656 C 20.5625 15.328125 21.164062 15.898438 21.257812 16.621094 C 21.355469 17.34375 20.910156 17.949219 20.265625 17.972656 Z M 20.265625 17.972656 "/>
<path style=" stroke:none;fill-rule:nonzero;fill:rgb(0%,0%,0%);fill-opacity:1;" d="M 28.21875 16.667969 C 27.90625 14.285156 26.820312 12.203125 25.410156 10.945312 L 24.074219 12.070312 C 25.320312 12.976562 26.308594 14.710938 26.574219 16.722656 C 26.820312 18.585938 26.386719 20.253906 25.53125 21.269531 L 27.078125 22.335938 C 28.050781 20.992188 28.519531 18.941406 28.21875 16.667969 Z M 28.21875 16.667969 "/>
<path style=" stroke:none;fill-rule:nonzero;fill:rgb(0%,0%,0%);fill-opacity:1;" d="M 24.5 16.597656 C 24.320312 15.242188 23.707031 14.019531 22.84375 13.101562 L 21.714844 14.050781 C 22.34375 14.742188 22.785156 15.648438 22.917969 16.648438 C 23.042969 17.589844 22.871094 18.464844 22.488281 19.171875 L 23.828125 20.09375 C 24.40625 19.136719 24.671875 17.917969 24.5 16.597656 Z M 24.5 16.597656 "/>
<path style=" stroke:none;fill-rule:nonzero;fill:rgb(0%,0%,0%);fill-opacity:1;" d="M 31.882812 16.519531 C 31.472656 13.386719 30.019531 10.605469 28.046875 8.726562 L 26.785156 9.789062 C 28.449219 11.175781 29.761719 13.660156 30.140625 16.527344 C 30.515625 19.375 29.878906 21.90625 28.609375 23.390625 L 30.152344 24.457031 C 31.59375 22.460938 32.292969 19.628906 31.882812 16.519531 Z M 31.882812 16.519531 "/>
<path style="fill-rule:nonzero;fill:rgb(100%,100%,100%);fill-opacity:1;stroke-width:5;stroke-linecap:round;stroke-linejoin:miter;stroke:rgb(0%,0%,0%);stroke-opacity:1;stroke-miterlimit:4;" d="M 153.99027 219.589081 L 207.1523 219.595473 L 207.149033 265.949169 L 153.987004 265.942778 Z M 153.99027 219.589081 " transform="matrix(-0.290482,-0.00378573,0.191695,-0.29225,20.180305,80.679842)"/>
<path style="fill-rule:nonzero;fill:rgb(100%,100%,100%);fill-opacity:0.976471;stroke-width:7;stroke-linecap:butt;stroke-linejoin:miter;stroke:rgb(0%,0%,0%);stroke-opacity:1;stroke-miterlimit:4;" d="M 157.36646 317.817736 L 206.042184 317.817736 L 206.040497 354.849158 L 157.364773 354.849158 Z M 157.36646 317.817736 " transform="matrix(0.290507,0,0.219105,0.294724,-112.265545,-75.598319)"/>
<path style="fill-rule:nonzero;fill:rgb(19.215686%,20.784314%,27.058824%);fill-opacity:1;stroke-width:1;stroke-linecap:butt;stroke-linejoin:miter;stroke:rgb(0%,0%,0%);stroke-opacity:1;stroke-miterlimit:4;" d="M 65.064229 147.993237 L 101.510609 147.986183 L 101.527683 179.081186 L 65.072721 179.074989 Z M 65.064229 147.993237 " transform="matrix(0.290416,0.00734424,-0.188092,0.29006,20.78825,-39.178153)"/>
</g>
</svg>