<svg xmlns="http://www.w3.org/2000/svg" xmlns:xlink="http://www.w3.org/1999/xlink" version="1.1" viewBox="-1.77 -1.16 17.98 18.84">
<g id="surface1">
<path style=" stroke:none;fill-rule:nonzero;fill:rgb(0%,0%,0%);fill-opacity:1;" d="M 10.207031 8.910156 C 9.886719 8.917969 9.589844 8.648438 9.542969 8.296875 C 9.496094 7.953125 9.71875 7.664062 10.035156 7.652344 C 10.355469 7.640625 10.652344 7.914062 10.695312 8.261719 C 10.746094 8.605469 10.523438 8.898438 10.207031 8.910156 Z M 10.207031 8.910156 "/>
<path style=" stroke:none;fill-rule:nonzero;fill:rgb(0%,0%,0%);fill-opacity:1;" d="M 14.132812 8.285156 C 13.980469 7.144531 13.441406 6.144531 12.746094 5.542969 L 12.085938 6.082031 C 12.703125 6.515625 13.191406 7.347656 13.320312 8.308594 C 13.441406 9.203125 13.230469 10 12.804688 10.488281 L 13.570312 10.996094 C 14.050781 10.355469 14.28125 9.371094 14.132812 8.285156 Z M 14.132812 8.285156 "/>
<path style=" stroke:none;fill-rule:nonzero;fill:rgb(0%,0%,0%);fill-opacity:1;" d="M 12.296875 8.25 C 12.207031 7.601562 11.90625 7.015625 11.480469 6.578125 L 10.921875 7.03125 C 11.234375 7.363281 11.449219 7.796875 11.515625 8.273438 C 11.578125 8.726562 11.492188 9.144531 11.304688 9.484375 L 11.964844 9.925781 C 12.25 9.464844 12.382812 8.882812 12.296875 8.25 Z M 12.296875 8.25 "/>
<path style=" stroke:none;fill-rule:nonzero;fill:rgb(0%,0%,0%);fill-opacity:1;" d="M 15.941406 8.210938 C 15.738281 6.714844 15.023438 5.382812 14.046875 4.480469 L 13.425781 4.992188 C 14.246094 5.65625 14.894531 6.84375 15.082031 8.214844 C 15.265625 9.578125 14.953125 10.792969 14.324219 11.503906 L 15.085938 12.011719 C 15.800781 11.058594 16.144531 9.703125 15.941406 8.210938 Z M 15.941406 8.210938 "/>
<path style="fill-rule:nonzero;fill:rgb(100%,100%,100%);fill-opacity:1;stroke-width:5;stroke-linecap:round;stroke-linejoin:miter;stroke:rgb(0%,0%,0%);stroke-opacity:1;stroke-miterlimit:4;" d="M 153.992534 219.595912 L 207.17018 219.605084 L 207.139578 265.954079 L 153.988942 265.944558 Z M 153.992534 219.595912 " transform="matrix(-0.143404,-0.00181229,0.094635,-0.139904,10.164915,38.927304)"/>
<path style="fill-rule:nonzero;fill:rgb(100%,100%,100%);fill-opacity:0.976471;stroke-width:7;stroke-linecap:butt;stroke-linejoin:miter;stroke:rgb(0%,0%,0%);stroke-opacity:1;stroke-miterlimit:4;" d="M 157.361115 317.831212 L 206.033994 317.831212 L 206.033461 354.848019 L 157.360582 354.848019 Z M 157.361115 317.831212 " transform="matrix(0.143416,0,0.108167,0.141089,-55.220263,-35.885388)"/>
<path style="fill-rule:nonzero;fill:rgb(19.215686%,20.784314%,27.058824%);fill-opacity:1;stroke-width:1;stroke-linecap:butt;stroke-linejoin:miter;stroke:rgb(0%,0%,0%);stroke-opacity:1;stroke-miterlimit:4;" d="M 65.061465 147.994208 L 101.519649 147.999442 L 101.51802 179.084956 L 65.086642 179.079044 Z M 65.061465 147.994208 " transform="matrix(0.143371,0.0035158,-0.0928563,0.138856,10.465042,-18.45051)"/>
</g>
</svg>