<?xml version="1.0" standalone="no"?>
<!DOCTYPE svg PUBLIC "-//W3C//DTD SVG 20010904//EN"
 "http://www.w3.org/TR/2001/REC-SVG-20010904/DTD/svg10.dtd">
<svg version="1.0" xmlns="http://www.w3.org/2000/svg"
 width="1120.000000pt" height="1120.000000pt" viewBox="0 0 1120.000000 1120.000000"
 preserveAspectRatio="xMidYMid meet">
<metadata>
Created by potrace 1.14, written by Peter Selinger 2001-2017
</metadata>
<g transform="translate(0.000000,1120.000000) scale(0.100000,-0.100000)"
fill="#000000" stroke="none">
<path d="M3943 9300 c-22 -3 -61 -15 -85 -25 -86 -38 -116 -68 -293 -300 -38
-49 -73 -91 -77 -93 -4 -2 -8 -10 -8 -17 0 -7 -4 -15 -8 -17 -4 -1 -37 -41
-72 -88 -35 -47 -69 -90 -75 -97 -13 -16 -19 -24 -90 -118 -33 -44 -64 -85
-70 -91 -5 -7 -41 -53 -80 -104 -38 -50 -97 -127 -130 -169 -33 -43 -71 -92
-85 -111 -50 -67 -134 -175 -140 -180 -4 -3 -11 -12 -16 -21 -5 -9 -21 -32
-36 -50 -30 -38 -229 -297 -268 -349 -14 -18 -67 -88 -119 -154 -51 -67 -103
-134 -115 -149 -67 -90 -102 -132 -108 -135 -5 -2 -8 -10 -8 -17 0 -7 -4 -15
-8 -17 -5 -1 -28 -30 -53 -63 -24 -33 -47 -62 -50 -65 -3 -3 -36 -45 -73 -95
-37 -49 -75 -99 -84 -110 -9 -11 -45 -58 -81 -105 -35 -47 -68 -86 -72 -88 -5
-2 -9 -10 -9 -17 0 -7 -4 -15 -8 -17 -4 -1 -30 -32 -57 -68 -27 -36 -54 -70
-60 -77 -5 -7 -25 -31 -42 -55 -18 -24 -83 -108 -144 -188 -123 -160 -131
-175 -134 -240 -3 -52 15 -93 57 -132 49 -44 -38 -40 1098 -52 278 -3 744 -8
1035 -11 695 -8 1099 -13 1105 -16 3 -1 10 0 15 1 6 1 60 1 120 0 133 -2 656
-8 925 -10 298 -2 353 23 505 228 30 40 60 79 67 87 16 18 19 21 97 125 132
174 255 335 260 340 4 3 40 50 81 105 41 55 78 102 81 105 3 3 25 32 50 65 24
33 52 69 61 80 9 11 87 112 173 225 86 113 168 220 183 239 15 18 31 41 36 50
5 9 12 18 15 21 9 7 53 62 76 94 11 16 29 40 41 55 12 14 98 127 193 251 95
124 177 232 184 240 7 8 93 121 192 250 98 129 182 237 185 240 3 3 39 50 80
105 41 55 77 102 81 105 3 3 19 23 35 45 16 22 37 49 46 60 9 11 39 50 67 88
28 37 74 97 102 134 57 75 70 102 74 156 7 85 -54 156 -145 171 -37 5 -963 17
-1552 20 -192 0 -348 3 -348 6 0 5 -112 4 -135 0 -5 -1 -12 -1 -15 0 -5 1
-178 4 -1170 14 -250 3 -455 5 -455 6 0 4 -711 4 -742 0z m1047 -245 c333 -4
761 -8 952 -10 190 -1 351 -6 357 -9 6 -4 11 -2 11 4 0 6 5 8 10 5 6 -4 243
-8 528 -11 284 -3 650 -6 812 -9 162 -2 348 -4 413 -4 64 -1 117 -4 117 -8 0
-5 -61 -87 -136 -183 -74 -96 -143 -186 -152 -198 -9 -13 -29 -38 -44 -55 -15
-18 -28 -35 -28 -39 0 -4 -6 -13 -13 -20 -7 -7 -42 -51 -77 -98 -73 -95 -76
-99 -122 -157 -18 -23 -55 -72 -83 -109 -27 -37 -54 -72 -60 -78 -5 -6 -44
-56 -85 -111 -41 -55 -85 -111 -97 -125 -13 -14 -23 -28 -23 -32 0 -3 -6 -13
-13 -20 -14 -13 -57 -69 -267 -343 -67 -88 -133 -173 -145 -190 -13 -16 -73
-95 -134 -175 -61 -80 -120 -156 -131 -168 -11 -13 -20 -26 -20 -28 0 -4 -9
-15 -52 -66 -10 -12 -18 -24 -18 -27 0 -3 -10 -17 -23 -31 -12 -14 -74 -92
-137 -175 -62 -82 -117 -151 -122 -153 -4 -2 -8 -10 -8 -17 0 -7 -4 -15 -8
-17 -5 -1 -44 -50 -88 -108 -43 -58 -81 -107 -84 -110 -4 -3 -19 -23 -36 -45
-16 -22 -33 -45 -39 -51 -32 -36 -45 -55 -45 -64 0 -6 -3 -10 -7 -10 -5 0 -19
-16 -32 -35 -13 -19 -34 -47 -47 -62 -13 -16 -24 -31 -24 -34 0 -3 -18 -15
-39 -27 -39 -22 -43 -22 -440 -20 -221 2 -401 7 -401 11 0 5 -5 5 -11 2 -13
-9 0 -9 -1539 10 -648 8 -1441 16 -1657 18 -112 1 -203 6 -203 10 0 5 37 57
83 115 46 59 126 163 177 232 52 69 99 130 105 136 5 6 19 23 30 38 11 16 25
33 31 40 5 6 30 38 54 71 24 33 46 62 49 65 3 3 28 34 55 70 128 168 216 282
375 490 95 124 183 238 195 253 11 16 26 34 31 40 6 7 37 48 70 92 32 44 63
85 69 90 6 6 29 35 51 65 22 30 42 57 45 60 3 3 25 32 50 65 25 33 51 66 57
75 7 8 56 71 108 140 53 69 108 140 123 159 15 19 36 47 47 62 41 55 239 314
245 319 3 3 48 61 100 130 52 69 97 127 100 130 3 3 17 21 30 40 14 19 32 44
42 55 9 11 35 43 57 72 22 28 53 58 68 65 31 15 -16 15 1043 3z"/>
<path d="M8618 7578 c-34 -23 -65 -45 -68 -48 -3 -3 -61 -45 -130 -94 -151
-108 -160 -117 -162 -159 -1 -42 14 -64 73 -110 81 -61 102 -80 204 -182 140
-139 291 -340 366 -486 13 -24 27 -45 31 -47 4 -2 8 -10 8 -17 0 -8 9 -29 19
-47 18 -31 108 -241 116 -268 0 -3 13 -41 27 -85 27 -83 57 -192 64 -235 2
-14 9 -45 14 -70 9 -41 16 -85 25 -150 17 -122 23 -386 11 -495 -12 -109 -28
-209 -42 -270 -8 -33 -17 -70 -20 -82 -2 -12 -18 -62 -35 -110 -71 -200 -184
-392 -305 -516 -44 -46 -54 -75 -40 -116 11 -33 69 -76 213 -156 39 -22 95
-55 138 -82 112 -69 147 -84 183 -80 20 3 38 10 40 15 2 6 16 24 32 40 15 16
36 43 46 58 10 16 27 35 36 42 10 7 18 17 18 23 0 9 49 89 61 99 21 17 193
364 203 410 2 9 68 214 73 230 3 8 7 22 8 30 3 17 11 55 19 90 7 29 14 69 21
120 3 19 8 44 10 56 26 122 26 529 0 719 -22 153 -23 164 -39 230 -23 95 -38
162 -41 175 -5 24 -95 292 -110 325 -7 17 -20 48 -30 70 -10 22 -31 69 -48
105 -17 36 -31 67 -32 70 0 3 -10 21 -23 41 -12 20 -22 39 -22 42 0 10 -104
182 -115 189 -5 4 -6 8 -2 8 5 0 2 7 -5 15 -27 30 -38 44 -38 50 0 9 -161 222
-201 267 -19 21 -61 68 -94 105 -84 95 -319 312 -340 314 -5 0 -20 2 -32 5
-13 2 -45 -12 -85 -38z m249 -333 c65 -66 136 -142 158 -169 22 -27 45 -54 50
-60 49 -52 190 -261 262 -386 80 -139 199 -399 218 -475 1 -5 8 -23 14 -40 7
-16 14 -37 16 -46 2 -9 13 -49 25 -89 12 -40 23 -80 25 -89 35 -170 51 -257
59 -324 3 -21 8 -42 11 -47 3 -6 1 -10 -5 -10 -6 0 -8 -4 -5 -10 10 -17 17
-102 17 -235 2 -327 -45 -587 -156 -875 -21 -52 -41 -99 -47 -104 -5 -6 -9
-15 -9 -22 0 -27 -165 -302 -217 -360 -18 -20 -19 -20 -152 59 -73 43 -129 82
-124 86 16 9 91 112 128 173 51 85 155 306 155 330 0 3 5 19 12 35 6 15 12 33
13 39 2 6 10 36 18 65 9 30 18 68 21 84 3 17 8 41 11 55 11 53 22 116 31 186
7 53 13 437 7 447 -3 5 -7 34 -8 65 -5 85 -13 133 -45 282 -30 143 -34 159
-73 285 -60 197 -180 452 -299 633 -64 97 -137 199 -163 228 -5 6 -35 39 -65
73 -53 60 -119 127 -205 206 -27 24 -36 38 -27 42 7 3 21 13 30 23 9 9 27 23
40 29 13 7 31 19 40 26 69 57 64 55 93 31 15 -11 81 -75 146 -141z"/>
<path d="M7914 7056 c-21 -11 -43 -26 -49 -32 -5 -7 -35 -28 -65 -49 -30 -20
-57 -40 -60 -43 -3 -4 -25 -21 -50 -37 -25 -17 -50 -34 -56 -40 -6 -5 -29 -21
-52 -35 -67 -41 -92 -107 -54 -143 27 -27 79 -67 86 -67 21 0 197 -169 267
-255 39 -49 139 -200 139 -211 0 -4 6 -15 13 -23 7 -9 26 -45 41 -81 16 -36
34 -78 41 -95 8 -16 19 -48 26 -70 6 -22 17 -53 23 -70 6 -16 11 -34 13 -40 2
-12 20 -101 27 -132 19 -90 26 -311 14 -423 -27 -238 -122 -458 -264 -612 -33
-36 -40 -60 -31 -102 4 -21 169 -129 274 -180 13 -6 23 -14 23 -18 0 -5 4 -8
9 -8 5 0 47 -22 94 -50 95 -56 122 -60 159 -27 23 21 118 142 118 151 0 3 20
39 45 80 25 42 45 79 45 82 0 3 7 21 15 40 37 84 44 103 64 166 21 70 58 223
59 248 1 8 4 29 6 45 23 141 24 396 1 558 -3 20 -7 52 -9 70 -4 35 -6 41 -36
172 -21 89 -54 201 -70 240 -4 11 -18 47 -31 80 -47 122 -175 364 -236 444 -6
9 -40 53 -73 98 -112 149 -336 365 -399 383 -21 6 -38 2 -67 -14z m56 -176 c0
-5 6 -10 13 -10 11 0 174 -161 222 -220 11 -14 37 -46 58 -71 20 -25 37 -49
37 -53 0 -7 10 -20 38 -51 6 -7 12 -16 12 -19 0 -3 15 -29 34 -58 64 -102 194
-386 211 -461 2 -12 15 -62 29 -112 13 -49 27 -110 31 -135 4 -25 9 -52 10
-61 2 -9 6 -40 10 -70 4 -30 9 -65 11 -79 12 -82 4 -355 -13 -445 -3 -16 -7
-41 -8 -55 -2 -14 -4 -25 -5 -25 -2 0 -6 -19 -13 -60 -14 -89 -142 -404 -176
-435 -4 -3 -19 -25 -36 -49 -16 -24 -31 -38 -33 -32 -2 6 -7 11 -11 11 -5 0
-67 35 -139 78 l-130 78 34 44 c18 25 43 62 53 82 11 20 24 45 30 55 5 10 12
25 15 33 3 8 10 22 15 30 39 65 85 231 105 376 15 106 13 370 -2 421 -6 17 -8
33 -6 35 9 10 -43 220 -82 331 -39 113 -148 323 -219 422 -74 104 -200 242
-274 300 -28 22 -50 45 -48 52 2 12 206 163 220 163 4 0 7 -4 7 -10z"/>
<path d="M7199 6442 c-20 -10 -42 -24 -50 -31 -8 -6 -51 -39 -96 -72 -46 -33
-83 -63 -84 -67 0 -4 -2 -17 -3 -30 -2 -12 7 -33 20 -47 29 -32 103 -130 135
-180 95 -148 149 -330 151 -510 2 -131 -5 -181 -37 -285 -5 -14 -19 -51 -42
-103 -13 -31 -23 -67 -21 -80 3 -22 67 -71 147 -113 20 -10 63 -36 95 -56 68
-44 104 -48 133 -15 34 36 121 221 132 280 0 4 1 8 2 10 0 1 2 9 4 17 2 8 8
36 14 61 30 129 30 339 1 464 -6 28 -14 61 -16 75 -27 141 -147 383 -263 530
-55 70 -156 170 -172 170 -8 0 -31 -8 -50 -18z m101 -222 c19 -25 37 -47 41
-50 12 -10 83 -128 115 -190 118 -237 156 -489 109 -735 -9 -48 -43 -151 -68
-205 l-23 -49 -69 41 c-39 23 -71 42 -72 42 -1 1 11 42 26 91 43 134 50 182
50 330 -1 125 -4 163 -12 172 -4 3 -7 19 -7 33 0 15 -7 47 -16 71 -8 24 -17
53 -20 64 -13 69 -137 301 -190 358 -13 15 -24 30 -24 35 0 5 21 23 47 40 54
35 47 38 113 -48z"/>
<path d="M6325 6017 c-22 -5 -52 -18 -67 -28 -14 -11 -30 -19 -35 -19 -29 0
-145 -143 -148 -182 0 -3 -3 -10 -7 -14 -13 -12 -9 -26 5 -18 7 5 6 1 -3 -10
-17 -21 -20 -68 -5 -78 6 -5 5 -8 -3 -8 -14 0 -10 -58 7 -103 5 -14 7 -28 4
-31 -4 -3 -1 -6 5 -6 7 0 12 -8 12 -18 0 -10 9 -28 20 -40 11 -12 20 -24 20
-27 -1 -21 1 -25 10 -20 6 3 10 0 10 -8 0 -19 79 -91 135 -123 75 -42 121 -53
225 -58 75 -3 102 2 93 18 -4 6 0 6 9 -2 13 -10 19 -10 32 3 9 9 16 14 16 11
0 -8 54 17 85 39 57 41 118 124 131 178 1 4 3 8 4 10 10 10 15 147 7 187 -12
56 -50 138 -78 168 -10 11 -15 23 -12 26 4 3 -1 6 -10 6 -9 0 -17 6 -17 13 0
16 -77 70 -90 62 -5 -3 -8 0 -5 7 3 8 -8 18 -27 26 -18 8 -42 18 -53 22 -65
29 -190 36 -270 17z m76 -30 c-10 -9 -11 -8 -5 6 3 10 9 15 12 12 3 -3 0 -11
-7 -18z m-158 -62 c-3 -9 -8 -14 -10 -11 -3 3 -2 9 2 15 9 16 15 13 8 -4z
m398 -12 c13 -16 12 -17 -3 -4 -10 7 -18 15 -18 17 0 8 8 3 21 -13z m-467 -71
c3 -5 -1 -9 -9 -9 -8 0 -12 4 -9 9 3 4 7 8 9 8 2 0 6 -4 9 -8z m351 -3 c-2 -3
12 -11 31 -18 18 -7 34 -17 34 -23 0 -6 3 -8 7 -5 3 4 19 -7 34 -24 17 -19 32
-28 40 -23 8 4 10 3 5 -5 -4 -7 0 -29 10 -49 22 -46 25 -56 24 -109 -2 -65 -4
-82 -10 -78 -3 2 -15 -10 -25 -26 -11 -16 -32 -35 -47 -42 -16 -6 -28 -15 -28
-18 0 -7 -19 -9 -97 -9 -47 0 -75 6 -110 24 -48 24 -103 71 -103 87 0 5 -7 9
-15 9 -8 0 -14 3 -13 8 5 17 -14 52 -25 45 -8 -4 -7 -1 1 9 7 9 9 19 4 22 -6
4 -9 81 -3 94 0 1 1 5 2 10 1 4 6 16 12 27 6 11 10 23 9 28 -1 4 4 7 12 7 8 0
16 6 19 14 3 7 25 23 49 35 34 17 57 21 114 19 40 -2 70 -6 69 -9z m-109 -481
c3 -4 -1 -5 -10 -4 -8 1 -18 5 -22 8 -3 4 1 5 10 4 8 -1 18 -5 22 -8z m111
-113 c0 -8 -4 -12 -9 -9 -5 3 -6 10 -3 15 9 13 12 11 12 -6z"/>
<path d="M1818 5284 c-3 -2 -167 -6 -364 -7 -339 -2 -361 -3 -389 -22 -67 -44
-99 -103 -91 -166 6 -46 20 -80 45 -110 12 -13 30 -35 42 -49 39 -46 114 -133
134 -155 11 -13 43 -49 70 -81 28 -32 59 -68 70 -80 11 -12 43 -48 70 -80 28
-32 64 -74 81 -94 17 -19 44 -51 60 -69 24 -29 69 -81 119 -137 6 -6 33 -38
61 -70 28 -32 87 -100 130 -149 44 -50 99 -115 124 -144 25 -30 54 -63 66 -75
11 -12 49 -55 85 -96 35 -41 66 -77 69 -80 3 -3 32 -36 65 -75 32 -38 66 -77
75 -86 8 -9 38 -42 65 -74 69 -82 129 -150 186 -215 26 -30 57 -66 69 -80 29
-34 122 -140 135 -154 5 -6 53 -61 105 -121 52 -61 103 -119 113 -130 10 -11
33 -37 50 -58 18 -21 43 -51 57 -66 83 -91 100 -111 100 -120 0 -5 4 -11 9
-13 5 -1 33 -30 62 -63 28 -33 79 -91 113 -130 128 -148 204 -202 311 -222 22
-4 1026 -8 2230 -8 2128 0 2191 1 2228 19 81 40 119 143 83 226 -13 30 -99
137 -210 260 -17 19 -58 66 -91 105 -61 70 -112 129 -130 149 -6 6 -67 76
-135 156 -69 80 -134 154 -145 166 -11 12 -31 34 -44 50 -40 47 -275 319 -281
324 -3 3 -48 55 -100 115 -52 61 -104 120 -115 131 -11 12 -34 39 -52 60 -18
22 -45 53 -60 70 -15 17 -48 55 -73 84 -25 29 -56 65 -70 80 -14 15 -44 50
-68 78 -23 28 -62 72 -85 98 -23 26 -48 55 -55 65 -7 10 -25 31 -40 47 -38 41
-77 85 -152 172 -36 41 -67 77 -70 80 -3 3 -30 34 -60 70 -30 35 -69 80 -87
100 -17 19 -41 46 -53 60 -12 14 -31 36 -43 50 -12 14 -39 45 -61 70 -53 62
-136 156 -167 190 -14 16 -39 43 -55 62 -52 58 -149 112 -229 127 -26 5 -185
9 -353 9 -169 1 -309 2 -312 3 -3 1 -9 1 -14 0 -7 -2 -411 -2 -456 0 -8 0
-190 -1 -405 -1 -214 -1 -394 0 -400 1 -5 1 -14 1 -19 0 -7 -2 -411 -2 -456 0
-8 0 -190 -1 -405 -1 -214 -1 -394 0 -400 1 -5 1 -14 1 -19 0 -27 -5 -444 -3
-453 2 -6 4 -12 4 -15 1z m3692 -285 c25 -11 55 -32 68 -47 57 -67 108 -126
117 -136 6 -6 67 -76 135 -156 69 -79 132 -151 140 -160 38 -41 136 -155 148
-171 7 -10 25 -30 40 -46 28 -30 33 -35 177 -203 50 -58 95 -109 101 -115 6
-5 69 -77 139 -160 71 -82 136 -157 144 -166 9 -9 36 -41 61 -70 25 -29 52
-60 60 -69 8 -9 40 -45 70 -80 30 -36 62 -72 70 -80 8 -8 40 -44 70 -80 30
-36 60 -70 65 -76 39 -43 82 -93 160 -184 50 -58 99 -114 110 -126 11 -12 31
-34 44 -50 28 -33 150 -174 190 -219 14 -16 53 -61 86 -100 33 -38 67 -76 75
-85 37 -40 125 -144 128 -150 1 -4 -930 -7 -2070 -7 -2353 0 -2104 -10 -2190
89 -84 96 -90 102 -132 151 -22 27 -50 59 -61 71 -11 12 -45 51 -75 86 -30 35
-64 74 -75 86 -22 24 -126 143 -177 204 -29 33 -159 182 -172 196 -6 6 -29 33
-51 58 -21 26 -48 58 -60 70 -11 12 -40 46 -65 75 -25 30 -54 63 -65 75 -11
12 -76 86 -145 166 -68 80 -129 150 -135 156 -5 6 -35 39 -65 74 -30 35 -77
89 -104 120 -64 73 -90 102 -156 180 -30 36 -60 70 -66 75 -5 6 -39 44 -75 85
-35 41 -68 80 -74 86 -5 6 -35 40 -65 75 -30 35 -67 76 -82 92 -14 15 -25 27
-22 27 2 0 -4 8 -13 18 -10 10 -37 40 -60 67 -24 28 -49 57 -56 65 -20 22
-174 199 -250 287 l-19 22 2068 0 c2044 0 2069 0 2114 -20z"/>
</g>
</svg>
