<?xml version="1.0" standalone="no"?>
<!DOCTYPE svg PUBLIC "-//W3C//DTD SVG 20010904//EN"
 "http://www.w3.org/TR/2001/REC-SVG-20010904/DTD/svg10.dtd">
<svg version="1.0" xmlns="http://www.w3.org/2000/svg"
 width="528.000000pt" height="528.000000pt" viewBox="0 0 528.000000 528.000000"
 preserveAspectRatio="xMidYMid meet">
<metadata>
Created by potrace 1.14, written by Peter Selinger 2001-2017
</metadata>
<g transform="translate(0.000000,528.000000) scale(0.100000,-0.100000)"
fill="#000000" stroke="none">
<path d="M1659 4732 c-96 -146 -177 -273 -181 -284 -4 -10 -12 -18 -18 -18 -5
0 -10 -5 -10 -11 0 -6 -15 -31 -32 -57 -18 -26 -35 -51 -38 -57 -5 -11 -145
-223 -158 -240 -4 -5 -70 -107 -147 -225 -77 -118 -143 -219 -148 -225 -4 -5
-22 -32 -39 -60 -26 -40 -212 -324 -259 -395 -57 -87 -337 -514 -355 -542
l-24 -38 77 0 c43 -1 242 -3 443 -6 201 -2 523 -6 715 -9 473 -6 1213 -16
1359 -18 l118 -2 31 45 c17 25 34 47 39 48 4 2 8 8 8 13 0 8 74 126 102 164
18 23 78 117 78 121 0 3 5 10 11 17 10 11 199 297 199 301 0 3 167 257 178
271 4 6 23 35 42 65 19 30 38 60 43 65 4 6 32 48 62 95 30 47 59 91 65 98 7 7
17 23 23 35 7 12 36 57 65 99 28 42 52 81 52 87 0 5 3 11 8 13 4 2 32 41 62
88 30 47 57 87 61 90 3 3 11 15 18 27 10 19 155 241 399 611 19 29 32 55 29
58 -3 3 -158 8 -344 10 -186 2 -498 6 -693 9 -318 4 -1051 14 -1501 19 l-166
2 -174 -264z"/>
<path d="M4594 3807 c-6 -7 -35 -32 -65 -57 -29 -25 -67 -57 -84 -72 l-30 -26
69 -69 c55 -55 113 -126 194 -238 69 -96 214 -447 236 -570 2 -16 7 -41 10
-55 30 -133 39 -225 40 -400 1 -186 -6 -253 -43 -410 -31 -133 -105 -300 -173
-391 -47 -61 -54 -50 97 -153 l109 -75 41 63 c96 148 176 348 214 537 12 58
15 73 27 154 16 100 9 460 -10 570 -2 11 -7 38 -11 60 -71 405 -273 809 -547
1093 -54 56 -57 57 -74 39z"/>
<path d="M4168 3448 c-7 -7 -53 -46 -101 -87 l-88 -74 64 -61 c78 -74 123
-131 173 -216 21 -36 39 -67 40 -70 0 -3 11 -27 23 -55 40 -88 79 -214 88
-285 3 -19 8 -53 12 -76 11 -59 11 -230 0 -294 -5 -30 -11 -66 -13 -80 -9 -54
-17 -82 -37 -133 -28 -70 -90 -187 -99 -187 -4 0 -10 -6 -13 -14 -4 -9 33 -40
109 -92 63 -42 117 -81 120 -86 8 -12 28 11 62 73 34 60 91 198 98 237 3 14 7
29 9 33 3 4 7 24 11 44 3 21 8 47 10 59 18 80 23 295 11 416 -23 237 -110 496
-229 689 -67 106 -205 271 -228 271 -5 0 -15 -6 -22 -12z"/>
<path d="M3715 3067 c-27 -23 -64 -55 -82 -72 l-34 -30 42 -55 c158 -210 199
-502 100 -725 l-19 -42 96 -68 c52 -37 101 -68 109 -69 30 -2 103 180 117 295
17 124 6 263 -29 393 -33 122 -118 288 -190 370 -14 16 -25 33 -25 38 0 20
-39 4 -85 -35z"/>
<path d="M3255 2745 c-138 -60 -145 -262 -12 -372 8 -6 34 -18 58 -26 76 -26
149 -1 192 65 15 23 28 53 28 68 1 14 3 34 4 45 3 31 -29 119 -56 153 -51 63
-151 95 -214 67z"/>
<path d="M330 2474 c0 -8 251 -352 323 -444 7 -8 23 -31 37 -50 14 -19 30 -42
37 -50 7 -8 47 -62 89 -120 43 -58 82 -109 86 -115 5 -5 78 -104 164 -220 85
-115 160 -217 167 -225 7 -8 28 -37 47 -65 19 -27 37 -52 40 -55 3 -3 71 -93
150 -200 79 -107 150 -201 157 -208 7 -8 18 -23 24 -34 6 -11 17 -27 24 -36 8
-9 51 -66 96 -127 45 -60 86 -114 90 -120 10 -10 2599 -14 2599 -4 0 7 -36 55
-57 77 -7 7 -13 17 -13 21 0 4 -8 16 -18 27 -9 10 -35 44 -57 74 -22 30 -43
60 -47 65 -28 36 -126 167 -138 185 -8 12 -22 30 -30 40 -8 10 -51 67 -95 127
-100 136 -401 541 -423 570 -9 12 -23 30 -31 41 -15 21 -258 351 -290 392
-118 157 -211 283 -211 286 0 2 -9 14 -19 26 -11 13 -42 52 -68 88 l-48 65
-1293 0 c-906 0 -1292 -3 -1292 -11z"/>
</g>
</svg>
